<?xml version="1.0" standalone="no"?>
<!DOCTYPE svg PUBLIC "-//W3C//DTD SVG 20010904//EN"
 "http://www.w3.org/TR/2001/REC-SVG-20010904/DTD/svg10.dtd">
<svg version="1.0" xmlns="http://www.w3.org/2000/svg"
 width="1440.000000pt" height="1440.000000pt" viewBox="0 0 1440.000000 1440.000000"
 preserveAspectRatio="xMidYMid meet">
<metadata>
Created by potrace 1.14, written by Peter Selinger 2001-2017
</metadata>
<g transform="translate(0.000000,1440.000000) scale(0.100000,-0.100000)"
fill="#000000" stroke="none">
<path d="M11110 12223 c-201 -20 -526 -148 -810 -316 -454 -270 -967 -738
-1295 -1181 -159 -215 -363 -579 -430 -766 -76 -215 -76 -361 2 -442 56 -59
127 -59 212 -2 2 2 -15 20 -38 42 -38 36 -41 43 -41 90 0 72 48 209 140 400
175 361 372 643 704 1006 278 303 637 571 1021 761 260 128 414 175 577 175
97 0 149 -20 192 -71 49 -58 60 -95 60 -204 0 -103 -14 -181 -60 -333 -37
-121 -164 -430 -307 -742 -167 -367 -242 -744 -178 -900 31 -75 63 -114 114
-139 117 -56 217 7 217 137 0 67 68 263 250 717 112 280 238 694 276 905 25
139 23 351 -4 453 -47 171 -141 296 -274 361 -99 49 -193 63 -328 49z"/>
<path d="M4200 12136 c-302 -89 -574 -423 -744 -915 -152 -438 -235 -954 -253
-1571 -12 -426 39 -915 117 -1123 55 -145 173 -270 288 -303 73 -21 175 -14
240 18 74 36 165 132 191 203 24 65 30 161 11 209 -9 24 -14 27 -36 22 -14 -4
-55 -30 -92 -57 -76 -58 -99 -69 -150 -69 -62 1 -96 30 -141 117 -125 247
-179 1126 -105 1703 39 311 148 720 249 935 144 308 347 530 488 534 63 2 132
-49 176 -132 62 -113 143 -406 221 -796 49 -249 91 -400 165 -595 160 -428
256 -610 388 -733 69 -64 154 -113 197 -113 44 0 89 20 97 43 11 33 10 40 -4
68 -21 45 -229 684 -278 854 -25 88 -68 250 -95 361 -140 567 -252 889 -375
1073 -63 96 -182 206 -264 244 -56 27 -79 32 -156 34 -53 1 -109 -3 -135 -11z"/>
<path d="M10200 10963 c-86 -13 -202 -78 -283 -157 -31 -31 -83 -96 -116 -145
-114 -169 -289 -549 -306 -664 -14 -94 17 -157 78 -157 18 0 41 6 51 13 15 11
16 18 5 59 -17 62 -2 125 60 253 96 199 240 425 345 542 68 76 136 102 171 66
25 -24 15 -93 -35 -254 -113 -360 -125 -507 -48 -595 34 -39 84 -47 110 -16
29 32 78 129 109 213 114 312 131 634 41 763 -39 57 -114 89 -182 79z"/>
<path d="M4190 10219 c-140 -56 -230 -293 -230 -603 0 -206 39 -391 108 -521
36 -66 136 -166 192 -192 85 -39 164 -37 196 4 29 38 17 74 -64 193 -87 128
-133 245 -153 387 -18 130 5 313 40 313 25 0 68 -102 112 -270 56 -215 141
-379 216 -418 12 -7 37 -12 56 -12 44 0 46 7 42 158 -7 271 -95 630 -197 799
-42 70 -128 149 -176 163 -46 12 -109 12 -142 -1z"/>
<path d="M9300 8129 c-120 -54 -161 -166 -106 -286 61 -130 254 -153 340 -40
80 105 85 218 13 295 -51 55 -164 69 -247 31z"/>
<path d="M5648 7991 c-81 -26 -138 -97 -138 -171 0 -81 69 -158 168 -186 87
-26 156 -4 202 64 21 30 25 47 25 111 0 68 -3 80 -28 113 -15 20 -44 44 -63
53 -42 20 -128 28 -166 16z"/>
<path d="M6694 6887 c-68 -37 -79 -84 -79 -322 2 -599 99 -917 355 -1158 185
-175 401 -274 577 -265 194 10 342 143 489 439 94 189 259 617 300 778 29 112
31 192 6 241 -14 29 -23 36 -54 38 -91 8 -183 -134 -407 -620 -44 -97 -81
-179 -81 -182 0 -24 -148 -302 -180 -339 -103 -116 -237 -93 -411 70 -90 85
-138 151 -197 269 -72 143 -103 264 -171 659 -30 172 -72 368 -83 381 -13 18
-43 23 -64 11z"/>
<path d="M5934 6482 c-100 -35 -241 -140 -379 -284 -137 -141 -271 -292 -250
-281 11 6 76 62 143 125 191 176 263 237 317 269 28 16 57 34 65 39 17 11 186
89 238 109 90 37 -34 57 -134 23z"/>
<path d="M7385 6271 c-70 -31 -115 -104 -115 -184 0 -61 52 -142 113 -174 37
-19 127 -19 165 1 70 36 123 149 108 228 -9 49 -60 117 -101 134 -47 19 -122
17 -170 -5z"/>
<path d="M8590 6227 c0 -10 66 -91 134 -163 85 -91 281 -283 284 -279 8 7
-100 165 -165 242 -124 147 -253 249 -253 200z"/>
<path d="M6129 5941 c-110 -69 -241 -221 -322 -371 -55 -103 -54 -123 1 -32
28 46 76 114 106 152 48 59 89 99 255 247 46 41 22 44 -40 4z"/>
<path d="M8440 5825 c0 -8 26 -58 58 -112 32 -54 101 -169 152 -255 52 -87 95
-156 97 -154 8 8 -211 434 -248 484 -40 52 -59 65 -59 37z"/>
<path d="M6407 5573 c-49 -78 -158 -335 -182 -430 -33 -130 -31 -137 9 -28 18
50 74 177 124 283 51 107 92 198 92 203 0 21 -21 7 -43 -28z"/>
<path d="M8167 5284 c-10 -11 -8 -100 4 -174 18 -111 95 -360 111 -360 7 0 8
14 4 38 -3 20 -18 111 -32 202 -39 247 -61 320 -87 294z"/>
</g>
</svg>
